<?xml version="1.0" encoding="UTF-8"?>
<svg id="Layer_2" data-name="Layer 2" xmlns="http://www.w3.org/2000/svg" viewBox="0 0 159.51 156.09">
  <defs>
    <style>
      .cls-1 {
        fill: #000000;
      }
    </style>
  </defs>
  <g id="Warstwa_1" data-name="Warstwa 1">
    <path class="cls-1" d="M157.48,97.65l-49.59-28.34c-1.15-.66-2.57-.65-3.71,0l-14.05,8.11c-.99.57-.99,2.01,0,2.58l40.36,23.06c1.67.96,1.67,3.37,0,4.32l-47.84,27.34c-1.94,1.11-4.32,1.11-6.26,0l-47.84-27.34c-1.67-.96-1.67-3.37,0-4.32l103.67-59.23c1.07-.61,1.73-1.75,1.73-2.99v-9.05c0-1.24-.66-2.38-1.73-2.99L83.73,1.12c-2.61-1.49-5.82-1.49-8.43,0L27.14,28.64c-1.07.61-1.73,1.75-1.73,2.99v9.41c0,1.24.66,2.38,1.73,2.99l23.95,13.69c1.15.66,2.57.65,3.71,0l14.05-8.11c.99-.57.99-2.01,0-2.58l-14.91-8.52c-1.67-.96-1.67-3.37,0-4.32l22.44-12.82c1.94-1.11,4.32-1.11,6.26,0l22.44,12.82c1.67.96,1.67,3.37,0,4.32L2.03,97.38c-1.26.72-2.03,2.06-2.03,3.5v8.72c0,1.45.78,2.78,2.03,3.5l73.27,41.86c2.61,1.49,5.82,1.49,8.43,0l73.75-42.14c1.26-.72,2.03-2.06,2.03-3.5v-8.17c0-1.45-.78-2.78-2.03-3.5Z"/>
  </g>
</svg>